<svg xmlns="http://www.w3.org/2000/svg" data-name="Layer 1" viewBox="0 0 512 512" id="cash-payment"><path d="M381.449,49.163a8.1,8.1,0,0,0-11.313-.08L172.139,247H153.981a79.976,79.976,0,0,0-36.879,9.143l-14.1,7.5V248.666c0-4.418-3.87-7.666-8.288-7.666H27.472C23.054,241,19,244.248,19,248.666V457.181C19,461.6,23.054,465,27.472,465h67.24A8.1,8.1,0,0,0,103,457.181V448.7l14.1,7.329A79.8,79.8,0,0,0,153.981,465H272.248C284.616,465,295,455.119,295,442.75V421.105a22.431,22.431,0,0,0-2.23-9.329A22.274,22.274,0,0,0,304,392.245V370.6a22.273,22.273,0,0,0-2.714-10.737,22.589,22.589,0,0,0,7.362-9.13L490.177,169.211a8,8,0,0,0,0-11.313ZM87,449H35V257H87ZM375.792,66.133l17.32,17.32-1.9,1.9a21.407,21.407,0,0,1-30.24,0l-2.2-2.2ZM305,291.235A7.037,7.037,0,0,1,298.222,298H252.767a8,8,0,0,0,0,16h35.354c3.545,0,6.879,2.549,6.879,6.1V341.74c0,3.545-3.334,6.26-6.879,6.26H245.552a8,8,0,0,0,0,16h36.075A6.537,6.537,0,0,1,288,370.6v21.645A6.674,6.674,0,0,1,281.627,399h-43.29a8,8,0,0,0,0,16h33.911c3.545,0,6.752,2.56,6.752,6.105V442.75c0,3.546-3.207,6.25-6.752,6.25H153.981a63.737,63.737,0,0,1-29.488-7.164L103,430.658V281.682l21.493-11.349A63.914,63.914,0,0,1,153.981,263H298.222A6.882,6.882,0,0,1,305,269.589ZM298.222,247h-12.73a49.866,49.866,0,0,1-11.72-32.918A50.952,50.952,0,1,1,320.25,265.3,22.532,22.532,0,0,0,298.222,247ZM311,326.218V320.1a22.334,22.334,0,0,0-1.947-9.013A22.4,22.4,0,0,0,321,291.235v-9.784c1,.083,2.542.138,3.895.137A67.09,67.09,0,1,0,266.171,247h-71.4L347.458,94.388l2.2,2.24a37.371,37.371,0,0,0,52.867.03l1.9-1.9,38.111,38.113-1.924,2.013a37.426,37.426,0,0,0,.066,52.8c.047.047.1.093.143.139l4.385,3.958ZM456.3,180.469l-4.371-4.158a21.408,21.408,0,0,1,.065-30.175c.042-.042.083-.084.124-.127l1.736-1.815,19.361,19.361Z"></path></svg>